<svg width="40" height="40" fill="none" xmlns="http://www.w3.org/2000/svg"><g clip-path="url(#clip0_73_547)"><path d="M0 39.98v-40h40v40H0zM32.912 7.06C29.352 3.5 25.032 1.7 20 1.7c-5.032 0-9.36 1.8-12.92 5.36-3.56 3.56-5.368 7.88-5.368 12.92s1.8 9.32 5.36 12.88c3.56 3.56 7.88 5.36 12.92 5.36s9.36-1.8 12.92-5.36c3.56-3.56 5.36-7.84 5.36-12.88 0-5.04-1.8-9.36-5.36-12.92zM34.2 17.94a1.684 1.684 0 00-1.68-1.24H31.2a11.5 11.5 0 00-4.16-6A11.116 11.116 0 0020 8.3a11.116 11.116 0 00-7.04 2.4 11.5 11.5 0 00-4.16 6H7.48a1.8 1.8 0 00-1.72 1.24c-1.48.04-2.72.88-3.16 2.04.44 1.16 1.68 2 3.16 2.04a1.913 1.913 0 001.72 1.24H8.8a11.76 11.76 0 004.16 6.04A11.319 11.319 0 0020 31.66a11.319 11.319 0 007.04-2.36 11.76 11.76 0 004.16-6.04h1.32a1.778 1.778 0 001.68-1.24c1.48-.04 2.76-.88 3.2-2.04-.448-1.16-1.728-2-3.2-2.04zM10 16.7a10.4 10.4 0 013.76-5.2A10.234 10.234 0 0120 9.46c2.236-.03 4.418.688 6.2 2.04a10.241 10.241 0 013.8 5.2H10zm16.2 11.76A10.036 10.036 0 0120 30.5a10.234 10.234 0 01-6.24-2.04 10.4 10.4 0 01-3.76-5.2h20a10.242 10.242 0 01-3.8 5.2zm-9.08 6.68V4.82h1.24v30.32h-1.24zm2.24 2.28V2.54h1.24v34.88h-1.24zm2.28-2.28V4.82h1.24v30.32h-1.24z" fill="#FFEAE5"/></g><defs><clipPath id="clip0_73_547"><path fill="#fff" d="M0 0h40v40H0z"/></clipPath></defs></svg>